<svg id="Layer_1" data-name="Layer 1" xmlns="http://www.w3.org/2000/svg" viewBox="0 0 101 101"><defs><style>.cls-1{fill:#fff;}</style></defs><title>logo</title><path class="cls-1" d="M50,1.57A48.25,48.25,0,1,0,98.24,49.82,48.25,48.25,0,0,0,50,1.57ZM75.72,72.4h-16V68.57h-.14c-3,3.43-7.52,5.28-14.84,5.28C34.1,73.85,24.27,68,24.27,54.59S34.1,35.33,44.78,35.33c6.73,0,11.48,1.64,14.32,5.07h.13V25.79H75.72Z"/><path class="cls-1" d="M59.23,54.59c0,5.14-2.71,8.18-9,8.18s-9-3.43-9-8.18,3-8.18,9-8.18C56.52,46.41,59.23,49.51,59.23,54.59Z"/></svg>