<svg id="Layer_1" data-name="Layer 1" xmlns="http://www.w3.org/2000/svg" viewBox="0 0 83 101"><defs><style>.cls-1{fill:#0d1b54;}</style></defs><title>painting</title><g id="jhCete"><path class="cls-1" d="M78.22,98.15H3.39a11.08,11.08,0,0,1-.75-2.74q0-44.82,0-89.64A11.08,11.08,0,0,1,3.39,3H78.22A10.77,10.77,0,0,1,79,5.77Q79,50.59,79,95.41A10.66,10.66,0,0,1,78.22,98.15ZM26.31,31.49c-.11-3.82,0-7.39,2.26-10.49a12.52,12.52,0,0,1,9.21-5.28,12.08,12.08,0,0,1,8.53,2.42c4.53,3.32,5.34,8.14,5.07,13.32H68.7V13.36H12.87V31.49Zm-1.56,56.4c-.93-2.5-2.28-4.84-2.59-7.31-.45-3.53-.06-7.16-.19-10.75-.17-4.91.41-9.49,3.92-13.36,1.49-1.64.36-4.25-1.72-4.89-1.61-.5-3.15-1.23-4.76-1.71-2.1-.62-4.24-1.1-6.53-1.69V87.89Zm35.06,0h9v-39c-3-.86-5.85-1.55-8.61-2.51s-5.58-2.14-8.67-1.78c-.2,3.66.9,5.25,3.79,5.69,5.26.8,7.29,3.15,7.29,8.48,0,6.62,0,13.23,0,19.85C62.62,81.87,62.2,85,59.81,87.85Zm-54,4.6c3.17-1.92,4-4.43,4-7.88Q9.56,50,9.8,15.31c0-3.3-1.76-4.79-4-6.67Zm70-.06V8.71c-2.67,1.9-4,4-4,7.39q.28,34.1,0,68.21C71.8,87.78,72.48,90.47,75.75,92.39ZM73.27,6.28H8.36a8,8,0,0,0,7.61,4q24.84-.33,49.67,0A8.11,8.11,0,0,0,73.27,6.28ZM8.34,94.9H73.26a8.09,8.09,0,0,0-7.62-4q-24.82.34-49.65,0A8.18,8.18,0,0,0,8.34,94.9Zm51.1-19.1c0-3.07,0-6.13,0-9.68L47,76.34c.53,2.52,2.3,2.19,4,2.32.67.06,1.29.87,1.94,1.34a15.33,15.33,0,0,1-2,1.63c-.36.21-1,0-1.45,0H38l-.83,6.26c5.55,0,10.89.17,16.21-.06m-8.22-14,11.74-9.63a7.33,7.33,0,0,0,2.28-8.33c-.89-2.45-2.82-2.94-4.75-1.22Q46.14,62.08,37.9,69.47c-.8.71-1.57,1.46-2.17,2ZM30.53,32.35h-1c0,1.19-.07,2.39,0,3.57a6.35,6.35,0,0,0,5.93,6c3.45.2,6.46-1.82,6.82-5.19a45.12,45.12,0,0,0,0-10.06c-.44-3.67-4-5.77-7.7-5a6.26,6.26,0,0,0-4.83,7.41c3.42.55,4.38,2,3.85,6.06-.08.64-.87,1.2-1.33,1.79-.57-.57-1.41-1-1.64-1.74A9.25,9.25,0,0,1,30.53,32.35ZM12.85,34.81v10l13.37,4v-14Zm38.7,0v6L68.7,45.53V34.78Zm-9,8.35-6.92,2.41a14.15,14.15,0,0,1-4,10.2A12.54,12.54,0,0,0,40.34,62c1.35.29,2.18-.25,2.2-1.5C42.61,54.66,42.57,48.85,42.57,43.13Zm9.6,9.46c-3.14-2-4-4.68-3.92-7.92.07-5.78.1-11.55-.08-17.32A8.75,8.75,0,0,0,39.78,19c4.83,3.2,5.89,5.23,5.89,11.2V56c0,.67.06,1.33.11,2.3ZM28.68,58.23a10,10,0,0,0-3.54,8.1,5.7,5.7,0,0,0,4.05,5.36,2.42,2.42,0,0,0,1.89-.31c2.46-2.07,4.82-4.25,6.87-6.09ZM25.31,78.55A8.05,8.05,0,0,0,34,87.78l.72-5.8a37.5,37.5,0,0,1-5.1-1.12A33.45,33.45,0,0,1,25.31,78.55ZM29.61,53c4-3.69,3.88-8.58,0-9.83Zm5.3,22.48-8.67-1.16c1.35,2.15,3.22,3.92,5.9,3.94C33,78.25,33.87,76.57,34.91,75.47Zm1.8,2.94h7.43C40.85,74.4,38.33,74.43,36.71,78.41Z"/><path class="cls-1" d="M37.42,29.06c-1.17,1-2.5,1.56-2.62,2.32C34.57,32.86,36,33,37.16,33s2.71.14,2.59-1.55C39.7,30.71,38.48,30.09,37.42,29.06Z"/><path class="cls-1" d="M37.42,29.06c1.06,1,2.28,1.65,2.33,2.36.12,1.69-1.41,1.54-2.59,1.55s-2.59-.11-2.36-1.59C34.92,30.62,36.25,30,37.42,29.06Z"/></g></svg>