<svg id="Layer_1" data-name="Layer 1" xmlns="http://www.w3.org/2000/svg" viewBox="0 0 101 101"><defs><style>.cls-1{fill:#0d1b54;}.cls-2{fill:#fff;}</style></defs><title>info</title><g id="fNC4P3"><path class="cls-1" d="M46.76,1h7.48a9.67,9.67,0,0,0,1.25.34c21,2.78,35,14.25,42,34.16,1.36,3.86,1.69,8.08,2.5,12.14v6.6a15.89,15.89,0,0,0-.37,1.66C96.74,76.4,85.52,90.24,66.14,97.32c-3.78,1.39-7.92,1.81-11.9,2.68H46.76a12.71,12.71,0,0,0-1.48-.35C25.1,97,11.31,86.08,4,67.16c-1.58-4.09-2-8.6-3-12.92V45.88a7.14,7.14,0,0,0,.37-1.25A49.13,49.13,0,0,1,36.29,3.18C39.7,2.19,43.27,1.71,46.76,1ZM35.86,47l1.59-.42c6-1.69,8.15.27,6.73,6.34-1.28,5.47-3,10.85-4.21,16.34-1.52,6.91,1.56,10.85,8.57,11.51,3.48.33,6.59-1,9.79-2,2.19-.7,3.21-1.92,3.06-4.22a37,37,0,0,1-4.3.77c-3.59.22-5-1.33-4.57-4.89a41.76,41.76,0,0,1,1.13-5.14C54.76,61.14,56.08,57,57,52.82c1.85-8.17-2-12.72-10.34-12.13-2.64.19-5.19,1.4-7.81,2C36.63,43.21,35.73,44.56,35.86,47ZM62.52,27.19A7.54,7.54,0,0,0,54.9,20c-4.12,0-7.68,3.33-7.66,7.19s3.61,7.15,7.74,7.09S62.51,31,62.52,27.19Z"/><path class="cls-2" d="M35.86,47c-.13-2.45.77-3.8,3-4.32,2.62-.6,5.17-1.81,7.81-2C55,40.1,58.87,44.65,57,52.82c-.94,4.2-2.26,8.32-3.37,12.48a41.76,41.76,0,0,0-1.13,5.14c-.47,3.56,1,5.11,4.57,4.89a37,37,0,0,0,4.3-.77c.15,2.3-.87,3.52-3.06,4.22-3.2,1-6.31,2.33-9.79,2-7-.66-10.09-4.6-8.57-11.51,1.2-5.49,2.93-10.87,4.21-16.34,1.42-6.07-.75-8-6.73-6.34Z"/><path class="cls-2" d="M62.52,27.19c0,3.77-3.46,7-7.54,7.06S47.26,31,47.24,27.16,50.78,20,54.9,20A7.54,7.54,0,0,1,62.52,27.19Z"/></g></svg>